<?xml version="1.0" encoding="utf-8"?>
<?xml-stylesheet type="text/xsl" href="rss1.xsl"?>
<rss version="2.0" xmlns:atom="http://www.w3.org/2005/Atom" xmlns:content="http://purl.org/rss/1.0/modules/content/" xmlns:dc="http://purl.org/dc/elements/1.1/" xmlns:media="http://search.yahoo.com/mrss/">
<channel>
 <title>Getty</title>
 <link>http://www.gettyimg.com/</link>
 <atom:link href="http://www.gettyimg.com/" rel="self" type="application/rss+xml" />

 
                <item>
                <title><![CDATA[【Apple Music】WEB-RiP - Sabrina Carpenter - santa doesn’t know you like i do [Apple HD Music Video]]]></title>
                <link><![CDATA[https://sharemania.us/threads/sabrina-carpenter-santa-doesn%E2%80%99t-know-you-like-i-do-apple-hd-music-video.242836/]]></link>
                <description><![CDATA[<article>
<blockquote class="messageText SelectQuoteContainer ugc baseHtml">
<span style="font-size: 22px"><b>Sabrina Carpenter - santa doesn’t know you like i do [Apple HD Music Video]</b></span><br>
<br>
<img src="https://imgur.com/sWC0m0m.jpg" class="bbCodeImage LbImage" alt="[​IMG]" data-url="https://imgur.com/sWC0m0m.jpg" style=""><br>
<br>
<div class="bbCodeBlock bbCodeCode">
<div class="type">Code:</div>
<pre>General
Format                         : MPEG-4
Codec ID                       : M4V  (isom/iso4/M4V /mp42)
File size                      : 181 MiB
Duration                       : 3 min 40 s
Overall bit rate mode          : Variable
Overall bit rate               : 6 906 kb/s
Movie name                     : santa doesn’t know you like i do
Performer                      : Sabrina Carpenter
Genre                          : Pop
ContentType                    : Music Video
Recorded date                  : UTC 2023-12-07 08:00:00
Encoded date                   : UTC 2024-04-22 16:37:43
Tagged date                    : UTC 2024-04-22 16:37:43
Copyright                      : ℗ 2023 Island Records, a division of UMG Recordings, Inc.
Cover                          : Yes
Rating                         : None
GenreID                        : 1614
AppleStoreCountry              : United Kingdom
AlbumTitleID                   : 390647681
AppleStoreCatalogID            : 1719900193

Video
ID                             : 2
Format                         : AVC
Format/Info                    : Advanced Video Codec
Format profile                 : High@L4
Format settings                : CABAC / 5 Ref Frames
Format settings, CABAC         : Yes
Format settings, Reference fra : 5 frames
Codec ID                       : avc1
Codec ID/Info                  : Advanced Video Coding
Duration                       : 3 min 40 s
Duration_FirstFrame            : 42 ms
Bit rate                       : 6 624 kb/s
Maximum bit rate               : 13.2 Mb/s
Width                          : 1 440 pixels
Height                         : 1 080 pixels
Display aspect ratio           : 4:3
Frame rate mode                : Constant
Frame rate                     : 23.976 (24000/1001) FPS
Color space                    : YUV
Chroma subsampling             : 4:2:0
Bit depth                      : 8 bits
Scan type                      : Progressive
Bits/(Pixel*Frame)             : 0.178
Stream size                    : 174 MiB (96%)
Title                          : Core Media Video
Language                       : English
Encoded date                   : UTC 2024-02-15 03:32:29
Tagged date                    : UTC 2024-04-22 16:37:55
Color range                    : Limited
Color primaries                : BT.709
Transfer characteristics       : BT.709
Matrix coefficients            : BT.709
Codec configuration box        : avcC

Audio
ID                             : 1
Format                         : AAC LC
Format/Info                    : Advanced Audio Codec Low Complexity
Codec ID                       : mp4a-40-2
Duration                       : 3 min 40 s
Duration_LastFrame             : -13 ms
Bit rate mode                  : Variable
Bit rate                       : 265 kb/s
Maximum bit rate               : 329 kb/s
Channel(s)                     : 2 channels
Channel layout                 : L R
Sampling rate                  : 48.0 kHz
Frame rate                     : 46.875 FPS (1024 SPF)
Compression mode               : Lossy
Stream size                    : 6.85 MiB (4%)
Title                          : Core Media Audio
Encoded date                   : UTC 2024-02-15 03:32:02
Tagged date                    : UTC 2024-04-22 16:37:55

Text
ID                             : 3
Format                         : EIA-608
Codec ID                       : c608
Duration                       : 3 min 33 s
Bit rate mode                  : Variable
Bit rate                       : 130 b/s
Maximum bit rate               : 1 104 b/s
Frame rate                     : 0.341 FPS
Stream size                    : 3.40 KiB (0%)
Title                          : Core Media Closed Caption
Language                       : English
Forced                         : No
Encoded date                   : UTC 2024-02-15 03:32:29
Tagged date                    : UTC 2024-04-22 16:37:55
</pre>
</div>
<div class="bbCodeBlock bbCodeVfcHH HiddenContent">
<div class="attribution type">Hidden Content:</div>
<blockquote>You must reply before you can see the hidden data contained here.</blockquote>
</div>
<div class="messageTextEndMarker">&nbsp;</div>
</blockquote>
</article>]]></description>
                <author><![CDATA[Mu$iC @$YLUM]]></author>
                </item>

                
                <item>
                <title><![CDATA[【Albums (lossless)】WAV - TOMORROW X TOGETHER (TXT) - minisode 3: TOMORROW (2024) | CD 16bit / 44.1Khz]]></title>
                <link><![CDATA[https://sharemania.us/threads/tomorrow-x-together-txt-minisode-3-tomorrow-2024-cd-16bit-44-1khz.242835/]]></link>
                <description><![CDATA[<article>
<blockquote class="messageText SelectQuoteContainer ugc baseHtml">
<div style="text-align: center"><img src="https://a5.mzstatic.com/us/r1000/0/Music221/v4/9d/c4/16/9dc41676-d81e-b1ff-d62f-c3d7cd0757a6/196922842283_Cover.jpg" class="bbCodeImage LbImage" alt="[​IMG]" data-url="https://a5.mzstatic.com/us/r1000/0/Music221/v4/9d/c4/16/9dc41676-d81e-b1ff-d62f-c3d7cd0757a6/196922842283_Cover.jpg" style=""> <br>
Personal CD rip<br>
<div class="bbCodeBlock bbCodeVfcHH HiddenContent">
<div class="attribution type">Hidden Content:</div>
<blockquote>You must either reply or click 'Like' to see the hidden information contained here.</blockquote>
</div></div>
<div class="messageTextEndMarker">&nbsp;</div>
</blockquote>
</article>]]></description>
                <author><![CDATA[2NE1]]></author>
                </item>

                
                <item>
                <title><![CDATA[【Apple Music】WEB-RiP - BIGBANG - Monster (Apple Music 1080p)]]></title>
                <link><![CDATA[https://sharemania.us/threads/bigbang-monster-apple-music-1080p.242834/]]></link>
                <description><![CDATA[<article>
<blockquote class="messageText SelectQuoteContainer ugc baseHtml">
<img src="https://imgur.com/l6Z2LQN.png" class="bbCodeImage LbImage" alt="[​IMG]" data-url="https://imgur.com/l6Z2LQN.png" style=""> <br>
<div style="text-align: center">
<div class="bbCodeBlock bbCodeVfcHH HiddenContent">
<div class="attribution type">Hidden Content:</div>
<blockquote>You must either reply or click 'Like' to see the hidden information contained here.</blockquote>
</div></div>
<div class="messageTextEndMarker">&nbsp;</div>
</blockquote>
</article>]]></description>
                <author><![CDATA[2NE1]]></author>
                </item>

                </channel></rss>